<svg xmlns="http://www.w3.org/2000/svg" width="110" height="75">
  <path vector-effect="non-scaling-stroke" d="M0 .011h110V74.99H0z" fill="#111b26" />
  <g>
    <g>
      <path vector-effect="non-scaling-stroke" d="M22.791 45.022v-3.365h9.617v3.365h-3.077V55.12h-3.462V45.022z" fill="#fff" />
      <path vector-effect="non-scaling-stroke" d="M41.047 41.657c5.77 0 6.732 6.731 2.885 8.655l2.885 4.327v.481h-3.846l-2.405-3.847h-1.923v3.847h-3.366V41.656h5.77zm.193 2.885h-2.693v3.366h2.693c2.02 0 2.02-3.366 0-3.366zM56.45 41.657l5.77 12.982v.481h-3.365l-.77-1.73h-5.193l-.769 1.73h-3.366v-.48l5.77-12.984h1.924zm-.961 5.289l-1.731 3.847h3.366l-1.635-3.847zM69.141 41.657c8.656 0 8.656 13.463 0 13.463h-5V41.657h5zm0 3.365h-1.73v6.732h1.73c4.328 0 4.328-6.732 0-6.732z" fill="#fff" fill-rule="evenodd" />
      <path vector-effect="non-scaling-stroke" d="M81.928 52.235h5.289v2.885h-8.655V41.657h8.655v2.885h-5.29v2.404h4.328v2.885h-4.327z" fill="#fff" />
    </g>
    <g>
      <path vector-effect="non-scaling-stroke" d="M41.52 22.765v10.098h5.29v3.366h-8.656V22.765zM53.06 27.092l2.405-4.327h3.846v.48l-4.616 7.213v5.77h-3.27v-5.77l-4.616-7.212v-.481h3.847zM63.166 22.765l4.809 5.77 4.808-5.77h1.924v13.464H71.34v-6.251l-3.078 3.365h-.48l-3.174-3.365v6.25h-3.366V22.766z" fill="#fff" />
      <path vector-effect="non-scaling-stroke" d="M83.36 22.765c6.444 0 6.444 9.617 0 9.617h-2.404v3.847H77.59V22.765h5.77zm.193 2.885h-2.597v3.847h2.597c2.02 0 2.02-3.847 0-3.847zM35.277 29.49c0 2.308-.866 3.942-2.116 5.097l-2.212-2.405c.577-.577.962-1.442.962-2.596 0-4.809-6.732-4.809-6.732 0 0 1.154.385 2.02.962 2.596l-2.212 2.405c-1.25-1.155-2.116-2.79-2.116-5.097 0-8.944 13.464-8.944 13.464 0z" fill="#fff" fill-rule="evenodd" />
      <path vector-effect="non-scaling-stroke" d="M72.783 19.88l-4.808 5.77-4.809-5.77z" fill="#f15131" />
      <path vector-effect="non-scaling-stroke" d="M23.737 37.19l4.808-5.77 4.809 5.77z" fill="#1fbf75" />
    </g>
  </g>
</svg>