<svg xmlns="http://www.w3.org/2000/svg" width="110" height="75">
  <path vector-effect="non-scaling-stroke" d="M0 .011h110V74.99H0z" fill="#0072c6" />
  <path vector-effect="non-scaling-stroke" d="M60.221 25.416v8.215l2.874 1.807a.733.733 0 00.315 0l12.357-8.33a1.761 1.761 0 00-1.438-1.693z" fill="#fff" />
  <path vector-effect="non-scaling-stroke" d="M60.221 36.69l2.62 1.8c.25.153.565.153.815 0-.45.272 12.11-8.067 12.11-8.067v15.1a2.112 2.112 0 01-2.235 2.332H60.22V36.691zM46.66 32.903a2.414 2.414 0 00-2.13 1.257 6.196 6.196 0 00-.789 3.327 6.075 6.075 0 00.789 3.318 2.4 2.4 0 004.156.033 6.021 6.021 0 00.773-3.3 6.553 6.553 0 00-.75-3.421 2.304 2.304 0 00-2.049-1.214z" fill="#fff" />
  <path vector-effect="non-scaling-stroke" d="M34.23 21.233v32.14L58.68 58.5v-42zm16.362 21.503a4.846 4.846 0 01-4.05 2.042 4.785 4.785 0 01-3.96-1.977 8.189 8.189 0 01-1.523-5.151 8.802 8.802 0 011.554-5.424 4.9 4.9 0 014.116-2.076 4.674 4.674 0 013.915 1.981 8.459 8.459 0 011.5 5.226 8.644 8.644 0 01-1.552 5.38z" fill="#fff" />
</svg>