<svg xmlns="http://www.w3.org/2000/svg" width="110" height="75">
  <path vector-effect="non-scaling-stroke" d="M0 .011h110V74.99H0z" fill="#fff" />
  <path vector-effect="non-scaling-stroke" d="M41.397 37.49c0-1.524.253-2.986.705-4.356l-7.909-6.04a23.456 23.456 0 00-2.41 10.396c0 3.737.868 7.26 2.407 10.388l7.905-6.05a13.885 13.885 0 01-.698-4.338" fill="#fbbc05" fill-rule="evenodd" />
  <path vector-effect="non-scaling-stroke" d="M55.284 23.633c3.311 0 6.302 1.174 8.652 3.094l6.836-6.827c-4.166-3.627-9.507-5.867-15.488-5.867a23.43 23.43 0 00-21.09 13.071l7.908 6.04a13.849 13.849 0 0113.182-9.51" fill="#eb4335" fill-rule="evenodd" />
  <path vector-effect="non-scaling-stroke" d="M55.284 51.367a13.849 13.849 0 01-13.182-9.51l-7.909 6.038a23.43 23.43 0 0021.09 13.072c5.732 0 11.205-2.036 15.312-5.849l-7.507-5.804c-2.118 1.335-4.786 2.053-7.804 2.053" fill="#34a853" fill-rule="evenodd" />
  <path vector-effect="non-scaling-stroke" d="M77.705 37.49c0-1.387-.213-2.88-.534-4.267H55.274v9.067h12.604c-.63 3.091-2.346 5.468-4.8 7.014l7.507 5.804c4.314-4.004 7.12-9.969 7.12-17.618" fill="#4285f4" fill-rule="evenodd" />
</svg>