<svg xmlns="http://www.w3.org/2000/svg" width="110" height="75">
  <path vector-effect="non-scaling-stroke" d="M0-.039h110V74.94H0z" fill="#e42238" />
  <g transform="matrix(1.08 0 0 1.19 55 37.45)" clip-path="url(#prefix__a)">
    <clipPath id="prefix__a">
      <path transform="translate(35.52 6.47)" d="M-80.04-33.31v66.62H80.04v-66.62" />
    </clipPath>
    <path vector-effect="non-scaling-stroke" d="M-2.474-.409c.587-.411 1.192-.778 1.817-1.172.464.479.902.943 1.314 1.441C.046.187-.544.558-1.108.898A23.042 23.042 0 00-2.474-.409m-2.43-1.994c.56-.46 1.176-.919 1.85-1.372.504.431.992.851 1.453 1.28a23.89 23.89 0 00-1.845 1.24c-.462-.403-.95-.763-1.458-1.148zm44.415-4.718l-.113-.091C24.549-6.609 10.618-1.965 1.25 3.813A18.941 18.941 0 00-.08 2.038c8.408-5.19 20.139-9.523 30.129-10.83l-.135-.075C19.221-7.794 8.761-4.544 1.322-.513A12.052 12.052 0 00.248-2.1c6.508-3.746 14.884-6.761 22.881-8.227l-.115-.081C13.68-8.995 5.24-6.387-.589-3.081c-.422-.47-.883-.913-1.389-1.37a37.88 37.88 0 011.91-1.078c.289.297.572.602.84.913l.329-.313a12.578 12.578 0 00-.593-.9c4.794-2.433 10.739-4.369 15.365-5.277l-.125-.078c-4.731.841-11.027 2.276-15.846 4.58-3.959-4.694-11.999-7.899-23.682-10.17l-.102.068C-13.318-14.31-5.577-10.716-.813-6.253c-.693.354-1.347.728-1.959 1.126-5.606-4.61-15.518-8.746-28.588-10.675l-.111.063c11.521 2.093 21.16 6.251 27.649 11.348-.645.491-1.218.995-1.701 1.541-7.204-5.103-18.615-9.397-33.878-11.373l-.106.071c12.623 2.016 25.771 6.465 34.695 13.97-1.176 1.007-2.127 2.065-2.79 3.143l.376.396c.967-.941 2.077-1.859 3.307-2.76.465.396.915.827 1.355 1.257-3.069 2.104-5.269 4.375-6.256 6.562l.404.334c1.705-1.972 4.085-3.929 6.912-5.804.513.566 1.001 1.104 1.465 1.691-5.76 3.794-9.56 7.983-10.41 11.834l.447.306C-7.574 12.681-3.677 9.099.986 5.958a27.385 27.385 0 011.98 3.174l.409-.264c-.211-1.196-.641-2.401-1.273-3.599C13.821-2.164 29.793-6.53 39.511-7.121z" fill="#fff" />
  </g>
</svg>