<svg xmlns="http://www.w3.org/2000/svg" width="110" height="75">
  <path vector-effect="non-scaling-stroke" d="M0-.039h110V74.94H0z" fill="#006747" />
  <g>
    <path vector-effect="non-scaling-stroke" d="M73.09 24.297c0-.822.747-3.325.747-3.325S69.205 23.7 69.205 26.8c0 2.166 1.382 3.474 1.382 3.996 0 .635-2.8 1.943-11.205 1.943l-6.125 10.159-2.092 1.344-2.54 4.781h-4.743l2.876-4.706-.71-1.456 6.948-10.421c-10.87 0-12.289-1.307-12.289-1.531 0-.598 4.706-2.764 4.706-6.425 0-1.68-1.68-3.735-1.68-3.735-.785 7.097-11.504 5.416-11.504 13.446 0 3.287 3.996 4.706 7.955 5.005l-1.344 2.017c-.523.747-.112 1.606.523 2.876L36.71 48.35s-1.233.896-1.494 1.382c-.56 1.083.598 2.726 2.428 5.714h12.96c4.37-2.465 6.163-3.473 6.163-4.519l-.075-1.083 2.503-4.37c.635-.299 2.24-1.12 2.913-2.204l2.278-3.697c6.5-.112 13.334-2.727 13.334-8.33.038-3.697-4.631-4.183-4.631-6.946m-9.15 14.491l-2.503 4.109c-.673 1.12-2.802 1.98-2.802 1.98l-2.764 4.818.075 1.232c.038.672-4.258 2.95-5.565 3.735h-12.25c-.449-.747-2.54-3.735-2.167-4.52.15-.298.747-.709 1.382-1.232l2.988-4.78c-.635-1.27-1.046-2.055-.784-2.466l2.166-3.25c-2.465 0-8.665-.597-8.665-4.22 0-6.685 9.45-6.35 10.98-11.503a3.74 3.74 0 01.56 1.755c0 3.436-4.743 5.005-4.743 6.387 0 1.942 6.574 2.39 11.541 2.39l-6.349 9.524.71 1.494-3.362 5.603h6.723l2.69-5.042 2.09-1.345 5.94-9.898c8.105 0 11.54-1.307 11.54-2.764 0-.97-1.381-1.98-1.381-3.996 0-2.017 2.39-3.772 2.39-3.772-1.232 4.594 4.52 4.594 4.52 8.254.037 5.192-6.873 7.507-12.96 7.507" fill="#fff" />
    <path vector-effect="non-scaling-stroke" d="M74.067 24.284c0-1.457 1.457-5.79 1.457-5.79s-7.32 4.072-7.32 8.293c0 2.054 1.157 3.735 1.157 3.735-2.166 1.008-6.424 1.195-10.57 1.195l-6.275 10.42-2.129 1.345-2.39 4.482h-2.353l2.24-3.623-.671-1.457 7.656-11.429c-8.702 0-10.495-.261-12.437-.784 0 0 4.034-2.577 4.034-6.163 0-2.39-3.026-6.05-3.026-6.05l-1.12 3.772c-1.196 4.071-11.056 4.034-11.056 12.027 0 3.51 3.324 5.229 7.209 5.789l-.449.635c-.747 1.083-.336 2.203.225 3.361l-2.279 3.66s-1.232.86-1.643 1.607c-.785 1.531.224 3.137 2.726 7.133H50.91c5.416-3.062 6.835-3.884 6.835-5.602 0 0-.037-.374-.037-.71l2.204-3.81c.859-.41 2.353-1.27 3.062-2.464l1.98-3.25c6.797-.261 13.782-3.212 13.782-9.3.037-4.146-4.669-5.192-4.669-7.022m-9.636 15.314l-2.278 3.697c-.673 1.083-2.279 1.905-2.914 2.204l-2.502 4.37.074 1.083c0 1.008-1.792 2.054-6.162 4.52h-12.96c-1.83-2.989-2.989-4.632-2.428-5.715.261-.523 1.494-1.382 1.494-1.382l2.651-4.295c-.635-1.27-1.045-2.13-.523-2.876l1.345-2.017c-3.959-.262-7.993-1.681-7.993-4.968 0-8.067 10.72-6.35 11.541-13.446 0 0 1.681 2.017 1.681 3.735 0 3.66-4.743 5.79-4.743 6.424 0 .225 1.419 1.532 12.288 1.532l-6.947 10.42.71 1.457-2.877 4.669h4.744l2.54-4.781 2.091-1.345 6.088-10.159c8.404 0 11.205-1.307 11.205-1.942 0-.523-1.382-1.83-1.382-3.996 0-3.1 4.632-5.827 4.632-5.827s-.747 2.502-.747 3.324c0 2.764 4.706 3.25 4.706 6.985 0 5.602-6.835 8.217-13.334 8.329" fill="#cfc493" />
    <path vector-effect="non-scaling-stroke" d="M72.324 22.996s-2.39 1.755-2.39 3.772 1.382 3.025 1.382 3.996c0 1.457-3.474 2.764-11.541 2.764l-5.976 9.898-2.055 1.345-2.726 5.005h-6.723l3.436-5.566-.71-1.494 6.35-9.524c-4.968 0-11.541-.41-11.541-2.39 0-1.382 4.743-2.988 4.743-6.387a3.61 3.61 0 00-.56-1.756c-1.531 5.117-10.981 4.819-10.981 11.504 0 3.623 6.2 4.22 8.665 4.22l-2.166 3.25c-.299.411.15 1.195.784 2.465l-2.988 4.781c-.635.523-1.232.934-1.382 1.233-.373.747 1.718 3.735 2.167 4.519h12.25c1.308-.747 5.603-3.025 5.566-3.735l-.075-1.233 2.764-4.818s2.129-.859 2.801-1.98l2.54-4.108c6.088 0 12.96-2.315 12.96-7.507-.074-3.66-5.826-3.66-4.594-8.254" fill="#006747" />
  </g>
</svg>