<svg xmlns="http://www.w3.org/2000/svg" width="110" height="75">
  <path vector-effect="non-scaling-stroke" d="M0 .011h110V74.99H0z" fill="#00aaec" />
  <path vector-effect="non-scaling-stroke" d="M79.96 21.625c-1.834.835-3.81 1.4-5.88 1.652a10.479 10.479 0 004.503-5.808 20.171 20.171 0 01-6.508 2.545c-1.863-2.04-4.527-3.314-7.475-3.314-5.652 0-10.237 4.702-10.237 10.501 0 .824.088 1.623.263 2.392-8.512-.439-16.056-4.615-21.11-10.976a10.693 10.693 0 00-1.387 5.285c0 3.642 1.808 6.857 4.556 8.74a10.055 10.055 0 01-4.64-1.31v.13c0 5.09 3.53 9.336 8.218 10.297a9.766 9.766 0 01-2.699.37c-.659 0-1.303-.063-1.928-.187 1.304 4.171 5.084 7.209 9.567 7.29-3.504 2.818-7.923 4.498-12.72 4.498-.826 0-1.643-.048-2.443-.144 4.533 2.974 9.918 4.714 15.7 4.714 18.84 0 29.14-16 29.14-29.879 0-.456-.01-.913-.027-1.36a21.02 21.02 0 005.107-5.436" fill="#fff" fill-rule="evenodd" />
</svg>